<?xml version="1.0" encoding="utf-8" ?>
<svg baseProfile="full" height="300mm" version="1.1" viewBox="0,0,200,300" width="200mm" xmlns="http://www.w3.org/2000/svg" xmlns:ev="http://www.w3.org/2001/xml-events" xmlns:xlink="http://www.w3.org/1999/xlink"><defs /><rect fill="#222222" height="300" width="200" x="0" y="0" /><text fill="#FFFFFF" style="font-size:12px; font-family:Arial; font-weight:bold;" x="10" y="20">游小刀-布局</text><text fill="#FFFFFF" style="font-size:4px; font-family:Arial" x="10" y="280">ATHLETE</text><text fill="#FFFFFF" style="font-size:9px; font-family:Arial" x="10" y="290">游小刀-运动员</text><text fill="#FFFFFF" style="font-size:4px; font-family:Arial" x="120" y="280">STATISTICS</text><text fill="#FFFFFF" style="font-size:3px; font-family:Arial" x="120" y="285">Number: 6</text><text fill="#FFFFFF" style="font-size:3px; font-family:Arial" x="120" y="290">Weekly: 1.2</text><text fill="#FFFFFF" style="font-size:3px; font-family:Arial" x="141" y="285">Total: 78.1 km</text><text fill="#FFFFFF" style="font-size:3px; font-family:Arial" x="141" y="290">Avg: 13.0 km</text><text fill="#FFFFFF" style="font-size:3px; font-family:Arial" x="167" y="285">Min: 10.2 km</text><text fill="#FFFFFF" style="font-size:3px; font-family:Arial" x="167" y="290">Max: 15.0 km</text><polyline fill="none" points="47.6569813254755,105.00186778447824 48.898580965120345,103.69995368702803 48.938632566249,102.65842036152026 46.09496887563728,90.11648030910874 42.61047956487164,69.15479402709752 40.96836391254328,38.817631485289894 40.44769309600815,34.78124018537346 39.6466610704083,34.0 40.487744697136804,34.303815749357454 40.68800270371139,35.1718598936568 41.24872512137517,34.08680451568216 42.33011835580692,34.73783797968645 43.61176959681325,63.078805077355355 44.492904824670404,64.20720771030756 47.857239332050085,64.2506077689468 43.53166639432311,63.773206950572785 41.88955074199475,35.258664238557685 41.20867352024652,34.34721798670944 40.44769309600815,34.82464238780085 40.607899501221254,38.64402382035041 42.290066754678264,64.07700751558878 42.65053116623312,66.16020721709356 44.05233721085824,66.16020721709356 50.10012900340371,103.4395705263596 51.06136743398383,104.95847069373121 51.90245106071234,105.21885319094872 59.07168768905103,105.82641190866707 60.35333892982453,104.95847069373121 59.03163608768955,90.89764691289747 58.591068473877385,88.25035594421206 57.50967523921281,87.38238913222449 47.616929724346846,87.42578750278335 47.37662011664361,88.59754231508123 50.34043861110695,104.48110248683952 51.101419035112485,105.17545611603418 54.465753542492166,105.60942672350211 58.591068473877385,105.86980893625878 60.07297772099264,105.34904439689126 58.91148128383793,89.63910021388438 57.830088049406186,87.42578750278335 51.982554263435304,87.1653972316999 47.616929724346846,87.98996603331761 50.02002580091357,103.48296772764297 51.38178024417721,105.30564733140636 58.67117167636752,106.0 59.95282291714102,105.39244145917473 58.95153288519941,89.29191444983007 57.91019125189632,87.38238913222449 47.41667171777226,87.81637269619387 50.14018060476519,103.9603367341333 51.70219305437058,105.30564733140636 59.43215210037306,105.82641190866707 60.273235727334395,104.61129385390086 59.47220370173454,97.88470266398508" stroke="#4dd2ff" stroke-linecap="round" stroke-linejoin="round" stroke-width="0.5"><title>2020-05-24 10.3km</title></polyline><polyline fill="none" points="148.68324193032458,102.970905004011 147.79189800610766,102.4441043207189 141.83609996759333,68.68400050897617 139.97238085325807,34.61467054969398 140.7016622456722,34.0 141.51197490422055,34.35124039085349 143.0110533221159,62.53761430265149 143.7403347142972,63.98641098313965 144.79374117031693,64.03031385841314 143.45672528422438,64.33763389638625 143.0515689549502,65.21569028391968 146.3333352212794,84.4448044274468 146.81952281598933,85.71794330113335 148.4806637656875,86.11305481864838 146.2928195882123,86.63986977247987 149.97974218358286,104.24400475475704 150.70902357599698,105.34150238242 155.85450895642862,105.86830053396989 159.09575958969072,105.95610018121079 159.9060722477734,105.07810313400114 158.2044156654738,88.00080627232092 157.71822807053104,87.386190168967 147.95396053791046,87.43009133997839 146.77900718315504,87.91300401027547 149.85819528484717,104.11230490525486 151.23572680400684,105.56100166821852 158.60957199474797,106.0 159.78452534927055,105.03420324809849 158.0828687667381,88.0886085217353 157.191524842754,87.12278307566885 149.12891389243305,87.21058545296546 146.73849155032076,88.04470739868702 150.02025781641714,104.50740436761407 150.546961044427,105.20980277255876 152.6537739560008,105.60490151582053 159.3388533871621,105.95610018121079 159.94658788084053,105.42930210626218 157.880290602101,87.386190168967 148.96685136063024,87.07888188236393 146.81952281598933,87.73739944770932 150.30386724695563,105.03420324809849 158.56905636168085,106.0 159.86555661517195,104.72690395714017 158.12338439980522,87.56179483386222 157.63719680462964,87.07888188236393 153.54511788021773,86.99107948603341 147.3867416770663,87.386190168967 146.86003844905645,88.04470739868702 150.18232034821995,104.77080386539456 158.44750946294516,105.78050087403972 159.70349408336915,105.42930210626218 160.02761914674193,104.2001048081438 158.1639000326395,87.5178936724551 157.39410300715826,87.12278307566885" stroke="#4dd2ff" stroke-linecap="round" stroke-linejoin="round" stroke-width="0.5"><title>2020-05-28 10.2km</title></polyline><polyline fill="none" points="29.039760999730788,186.0 28.725896868738346,185.87246920642792 29.00052798341494,185.57489713792165 28.784746393328533,184.06577697784815 26.15613429597579,169.1016843905527 25.07722634554375,152.39370843897632 22.899793936521746,151.75598047587846 24.99876031279564,152.05358703220554 25.27339142735582,152.75508699925558 24.99876031279564,149.9278192550264 25.175308886449784,147.10052410844946 26.31306636147201,143.9330706819601 27.39197431190405,141.97731045058754 28.274717180407606,141.31830133164476 29.510557196335867,139.0649040613207 34.905096948263235,132.75104727344296 42.30052053567488,138.4484055484645 44.71335104294121,139.08616260750568 48.69550220540259,142.12611875524453 51.38296382734552,143.57168119217386 55.11010038328823,144.35823421436362 64.48679129767697,144.27320155741472 66.80153926403727,144.613332036286 71.0975545574911,146.2076883688569 76.62940986687317,149.94907700945623 77.02174003073014,149.88530374148104 76.96289050602354,149.14128125128627 74.64814253977966,144.71962272959354 69.94018057442736,132.75104727344296 69.23398627946153,130.47632463088667 68.95935516478494,127.96773142182792 69.03782119764946,125.26778071794251 70.8229234428145,119.57016489836678 73.05920537642669,116.5512337742548 75.88398255570792,114.0 72.33339457341935,117.46542044292437 70.84253995108884,119.67646472026536 69.39091834507417,123.65205022884766 69.01820468937512,128.26536225300515 69.88133104983717,132.28334873997665 74.88354063802399,144.95346211848664 77.0021235224558,149.056249988731 77.10020606347825,149.7790149305074 76.60979335871525,149.88530374148104 71.39180218032561,146.3564945152466 66.89962180494331,144.65584831824526 65.4872332153609,144.4007505334739 54.148891481920145,144.315717888996 50.421754926093854,143.3165824591706 43.81099166627973,138.4484055484645 43.497127535170875,138.32085396928596 42.92824879777618,138.6397328125604 42.143588470178656,138.42714695578616 36.19978648878168,133.77147783360851 34.68931535829324,132.96363726793788 29.706722278147936,139.1074211521045 28.66704734414816,141.10571742725733 27.431207328219898,142.10486043061246 25.881503181299195,145.5699468816165 25.293007935630158,147.22807184817793 25.09684285381809,150.48052036733134 25.48917301755864,159.47239521259326" stroke="#4dd2ff" stroke-linecap="round" stroke-linejoin="round" stroke-width="0.5"><title>2020-05-31 13.9km</title></polyline><polyline fill="none" points="116.7265077138436,167.6364156002237 114.8751753155957,156.65779428834503 114.65638148668222,147.5024961089366 114.0,142.6511466056545 114.13464235624997,140.90026053442853 114.69004207575927,137.7997030650149 116.03646563820075,134.58967368285812 116.92847124824766,133.98778858949663 117.90462833101628,131.96325537802477 122.46563814871479,126.67385707012727 128.62552594667068,131.36136396721122 129.50070126226638,131.72614681324922 130.22440392710268,131.39784227573546 134.17952314170543,134.48024013719987 136.35063113598153,135.77520069332968 137.8485273492406,136.32236511156952 139.98597475455608,136.63242441751936 148.4852734922897,136.66890195765882 151.41374474047916,137.17958696145797 153.90462833101628,138.31038576122955 158.70126227207948,141.35622162834625 159.3744740532129,142.15871113620233 164.01963534369133,145.4780722220603 166.964936886332,146.86416602009558 173.2931276296731,147.5024961089366 175.32959326787386,147.1194982509478 179.30154277698603,145.53278659642092 183.13884992984822,143.0888662096113 185.94950911641354,141.7392283053341 186.0,141.44741374748992 179.80645161290886,144.93092782037274 178.99859747546725,145.60573907702928 175.8345021037385,146.86416602009558 172.75455820473144,147.4660201476654 166.34221598872682,146.5723574372969 162.79102384287398,144.7303079067351 158.8022440391942,141.8304202848958 158.5497896213201,141.35622162834625 155.18373071530368,139.16760080143285 151.09396914445097,137.12487076090474 148.45161290321266,136.61418564547785 139.07713884994155,136.57770809732028 136.03085553995334,135.73872302293603 133.97755960730137,134.48024013719987 130.22440392710268,131.45255972855375 129.39971949509345,131.70790768359439 128.59186535765184,131.43432057897735 125.19214586255839,128.6254756700946 122.63394109392539,126.89273094203963 122.2468443197431,126.89273094203963 118.54417952313088,131.68966855258623 117.87096774193924,132.20036371811875 117.33239831699757,133.55005306682142 115.86816269281553,135.13684069330338 114.3197755960864,139.02169206576946 114.0841514726635,141.8121818916552 114.94249649369158,153.90394498546084 114.85834502102807,155.81887651701982 117.65217391302576,173.05260130453098 122.34782608691603,173.32614292985818 122.54978962132009,173.03436518553644 122.1626928471378,168.91296823573066" stroke="#4dd2ff" stroke-linecap="round" stroke-linejoin="round" stroke-width="0.5"><title>2020-06-07 15.0km</title></polyline><polyline fill="none" points="14.0,252.7904336196807 17.07853403140325,253.04571562059573 17.549738219880965,252.60322664184787 15.068062827165704,237.609162613051 14.392670157016255,225.40556485579873 14.502617801073939,221.3375572560035 15.4921465968946,218.6141652930237 16.308900523581542,217.2013932018599 16.905759162269533,216.82692205805506 17.92670157068642,214.86944948750897 22.08900523558259,209.9671853066684 23.34554973820923,210.64806148639764 27.869109947583638,214.22262885744567 31.575916230329312,215.99287053420267 35.07853403134504,218.37586698529776 36.99476439796854,218.93756975034194 38.92670157062821,219.12480370511184 46.27748691092711,219.02267611201387 49.45026178006083,219.75458954235364 51.55497382191243,220.75883912100107 55.60732984292554,223.5332689031784 55.90575916232774,223.55028984310047 56.42408376961248,224.21410553150054 60.39790575916413,227.02253564658167 63.93193717277609,228.70757750814664 69.5078534031054,229.1671322699258 73.62303664919455,228.07781581066956 78.77486910985317,225.04812769667478 81.6492146596429,223.65241545636673 81.79057591618039,223.56731078175653 81.58638743450865,223.39710133938934 81.91623036644887,223.58433171914658 83.0,223.26093369619048 81.68062827223912,223.55028984310047 81.47643979056738,223.0226401295513 83.39267015701625,220.89500822295668 86.0,222.63115731376456 85.82722513086628,222.35882105489145 85.96858638746198,221.98435818045982 85.1047120418516,221.67797901849553 84.61780104710488,218.66522918448027 84.6492146596429,217.33756437806005 82.95287958113477,216.00989202364872 82.29319371725433,215.00562202344008 80.97382198949344,214.22262885744567 80.612565444957,213.473676415917 80.54973821988096,212.65663464913087 79.01047120417934,211.58426299170242 77.314136125613,208.02667730144458 76.81151832453907,207.65219144392177 75.93193717277609,207.55005883306148 75.17801047122339,206.95428437938972 75.9476439790451,207.56708093799534 76.8586387434043,207.60112514407956 77.2827225131332,207.94156693201512 78.90052356017986,211.3629793382861 80.29842931928579,212.29917797721282 80.67539267014945,212.79280847545306 80.65968586382223,213.3545246696449 81.03664921462769,214.12049912047223 82.41884816752281,215.0226435848308 82.79581151827006,215.68648351200682 84.57068062823964,217.50777823655517 85.1047120418516,221.7801054504671 83.25130890053697,220.82692368191783 82.54450261773309,221.91627395695832 81.41361256543314,222.68222032695485 81.38219895283692,223.7885828714061 81.16230366489617,223.958792028483 78.1937172774924,225.38854405112215 74.73821989528369,227.6182589058444 72.61780104710488,228.50333065717132 70.27748691092711,229.099050140052 69.1937172774924,229.21819385435083 62.42408376961248,228.31610422018275 59.12565445021028,226.32468646773486 56.376963350747246,224.12900106151938 55.92146596859675,223.55028984310047 55.59162303659832,223.51624796206306 52.52879581146408,221.35457835589477 48.382198952836916,219.44820745526522 45.287958115222864,219.05671864803298 38.36125654447824,219.05671864803298 35.69109947641846,218.6482078885747 33.93193717277609,217.88224828861712 29.157068062806502,214.15454237112135" stroke="#4dd2ff" stroke-linecap="round" stroke-linejoin="round" stroke-width="0.5"><title>2020-06-21 15.0km</title></polyline><polyline fill="none" points="116.16074508451857,248.04563958194922 115.01828216627473,241.62723638190073 114.44705070712371,237.01176879409468 114.24836150393821,231.19853764706932 114.0,228.81667482045304 114.17385305278003,225.51969535675016 114.4843049327028,224.37583158440248 115.51500517415116,222.24957186172833 116.08623663330218,221.87276378716342 116.9803380476078,220.2847784520127 118.97964815451996,217.82202841523394 120.35805450152839,216.50316516098974 124.79130734730279,219.86759359849384 130.98792687128298,223.36653413593012 133.2852707830025,223.71642454285757 139.7302518109209,223.74333916205796 141.7047257674858,224.25471618190932 144.46153846150264,225.5869812403107 146.59744739561575,227.18837803407223 146.83339082438033,226.97306498752732 148.12487064505694,228.34568135808513 151.34115212137112,230.5391549677588 152.8561572955805,231.19853764706932 157.4135908933822,231.750264202361 159.71093480510172,231.25236470061645 161.18868575367378,230.67372305267781 165.19972404278815,228.31876740966982 167.2735426008585,227.36331969952153 167.12452569854213,226.69046623296163 168.03104518802138,225.95032458800415 168.6519489478669,225.10252233123174 169.94342876854353,225.88303883685148 169.55846843734616,223.47419279330643 169.59572266304167,222.41106080115424 170.87478440837003,222.06116792057583 172.68782338732854,220.21749063616153 172.9486029665568,219.45040780228737 173.09761986887315,217.79511293281394 172.98585719213588,219.26200100469578 172.66298723698128,220.1502027957904 171.49568816833198,219.6657296212943 171.4584339427529,218.95247513403592 172.1911003793939,218.1584716146026 173.6440151776187,215.74952478523483 174.02897550875787,214.59214250308287 174.35184546391247,214.88821773111704 174.87340462225256,214.52485261228867 175.8171783373691,214.7132642446668 176.45050017244648,215.25158213464601 176.736115902022,215.8437300004589 177.29492928594118,215.33232968274388 179.29423939285334,215.95139304471377 179.8406347015989,216.67811695105047 179.86547085194616,217.0549356280244 180.1635046567535,217.20297132636188 180.5608830631245,215.74952478523483 181.3308037254028,215.56111421053356 182.1379786132602,214.83438590679725 182.43601241806755,214.87475977651775 182.72162814764306,215.85718788442318 182.99482580198674,215.8975615304371 183.45429458434228,214.87475977651775 183.56605726113776,214.09419673043885 183.11900655395584,213.43475296412362 183.21835115551949,212.90988787449896 184.1869610209833,213.6097076623555 184.78302863053977,213.69045592866314 185.29216971364804,213.28671424380445 185.09348051052075,212.04856757017842 185.26733356330078,211.9947349177237 185.68954812001903,212.37156315529137 186.0,213.2732561724115 185.81372887198813,214.16148677819 185.75163849600358,212.43885383108864 185.21766126248986,211.95436041805078 185.2797516384744,213.28671424380445 184.73335632978706,213.73083004858927 184.1124525698251,213.63662375505373 183.5784753363696,213.07138498412678 183.20593308034586,212.95026216514816 183.13142462912947,213.42129490354273 183.51638496026862,213.86541038451833 183.56605726113776,214.24223480316869 183.4667126595741,214.95550748941605 182.9824077267549,215.8975615304371 182.68437392206397,215.69569321209565 182.47326664364664,214.95550748941605 182.1752328388975,214.87475977651775 181.3308037254028,215.58803001868364 180.5608830631245,215.8437300004589 180.17592273192713,217.1895135405357 179.90272507758345,217.09530901207472 179.79096240078798,216.5973699916358 179.29423939285334,215.99176667012216 178.58640910655959,215.91101941050147 177.3446015867521,215.39961927918193 176.7733701276593,215.85718788442318 176.59951707482105,215.80335634268704 176.4132459468674,215.22466627741233 175.79234218696365,214.72672221105313 174.89824077271624,214.5517685715604 174.37668161431793,214.88821773111704 174.05381165916333,214.69980627730547 173.63159710244508,215.83027211553417 172.2656088306103,218.18538704402454 171.5081062435056,218.99284810310928 171.5081062435056,219.6657296212943 172.57606071053306,220.1232876527938 172.52638840978034,220.3924389063468 171.0238013107446,221.99388075213938 169.67023111419985,222.43797561066458 169.68264918937348,224.03939971457294" stroke="#4dd2ff" stroke-linecap="round" stroke-linejoin="round" stroke-width="0.5"><title>2020-06-24 13.7km</title></polyline></svg>