<?xml version="1.0" encoding="utf-8" ?>
<svg baseProfile="full" height="200mm" version="1.1" viewBox="0,0,200,200" width="200mm" xmlns="http://www.w3.org/2000/svg" xmlns:ev="http://www.w3.org/2001/xml-events" xmlns:xlink="http://www.w3.org/1999/xlink"><defs /><rect fill="#1a1a1a" height="200" width="200" x="0" y="0" /><text alignment-baseline="middle" fill="#e1ed5e" style="dominant-baseline: central; font-size:9.0px; font-family:Arial;" text-anchor="middle" x="100.0" y="100.0">2020</text><line stroke="#e1ed5e" stroke-width="0.3" x1="100.0" x2="100.0" y1="15.0" y2="10.0" /><path d="M 100.0 14.0 a86.0,86.0 0 0,1 42.35913384403234,11.155469271406648" fill="none" id="id1" stroke="none" /><text fill="#e1ed5e" style="font-size:6.75px; font-family:Arial;" text-anchor="middle"><textPath startOffset="22.145653131862478" xlink:href="#id1">January</textPath></text><line stroke="#e1ed5e" stroke-width="0.3" x1="143.13028292997686" x2="145.6673583964461" y1="26.7553504044142" y2="22.446841604673864" /><path d="M 143.63769802327073 25.89364864446614 a86.0,86.0 0 0,1 29.32050498858742,28.57503671076993" fill="none" id="id2" stroke="none" /><text fill="#e1ed5e" style="font-size:6.75px; font-family:Arial;" text-anchor="middle"><textPath startOffset="20.669276256404974" xlink:href="#id2">February</textPath></text><line stroke="#e1ed5e" stroke-width="0.3" x1="172.87174338648825" x2="177.1583165268699" y1="56.24261187166439" y2="53.66864786411523" /><path d="M 173.72905801456457 55.72781907015455 a86.0,86.0 0 0,1 12.242430191666344,42.057860355516425" fill="none" id="id3" stroke="none" /><text fill="#e1ed5e" style="font-size:6.75px; font-family:Arial;" text-anchor="middle"><textPath startOffset="22.145653131862474" xlink:href="#id3">March</textPath></text><line stroke="#e1ed5e" stroke-width="0.3" x1="184.99686870605535" x2="189.99668451229388" y1="99.2704041080226" y2="99.22748670261217" /><path d="M 185.99683186730306 99.26182062694052 a86.0,86.0 0 0,1 -10.086455211305974,41.156179273409016" fill="none" id="id4" stroke="none" /><text fill="#e1ed5e" style="font-size:6.75px; font-family:Arial;" text-anchor="middle"><textPath startOffset="21.40746469413373" xlink:href="#id4">April</textPath></text><line stroke="#e1ed5e" stroke-width="0.3" x1="174.33088141563837" x2="178.70328620479359" y1="141.23008692659167" y2="143.65538615756765" /><path d="M 175.20536237346943 141.71514677278685 a86.0,86.0 0 0,1 -30.301960400862466,31.631185727798858" fill="none" id="id5" stroke="none" /><text fill="#e1ed5e" style="font-size:6.75px; font-family:Arial;" text-anchor="middle"><textPath startOffset="22.145653131862474" xlink:href="#id5">May</textPath></text><path d="M 118.18653347947321 110.5 l 20.582929597097444 11.883559943595317 a44.767119887190645,44.767119887190645 0 0,0 -0.3899563404352277,0.6622311186580182 l -20.375899546532448 -12.235142230546884" fill="#ff3c05" stroke="none" /><path d="M 117.01052211995028 112.31430620078461 l 17.900773759135973 12.958779733306319 a43.099042362784,43.099042362784 0 0,0 -0.43899038663192547,0.5955747700111045 l -17.67568135292022 -13.264160812586304" fill="#ff1902" stroke="none" /><path d="M 116.79662413953412 112.60449989151573 l 23.179308925990835 17.394185546808625 a49.97995950865571,49.97995950865571 0 0,0 -0.5208578719229159,0.681819674109416 l -22.877299076713616 -17.789526134158915" fill="#ffa40f" stroke="none" /><path d="M 116.35404254752997 113.17365903436017 l 16.696991740833674 13.449914628386013 a42.440376319093374,42.440376319093374 0 0,0 -0.4618991904970675,0.5634419086485976 l -16.46364573109798 -13.734558818733104" fill="#ff0b01" stroke="none" /><path d="M 116.1254893667686 113.45245675266167 l 22.786599470122436 19.009391711469807 a50.674670826344155,50.674670826344155 0 0,0 -0.5629845807749292,0.6631944205482736 l -22.45692032584039 -19.397752914467635" fill="#ffb110" stroke="none" /><path d="M 115.89218393027572 113.72728997021213 l 22.449599744744756 19.391429570873633 a50.664997379089655,50.664997379089655 0 0,0 -0.5741766105138381,0.6533075826181185 l -22.113412070272332 -19.773949431303045" fill="#ffb110" stroke="none" /><path d="M 114.91283532996326 114.78537596483092 l 22.410853158089672 22.21930855557772 a52.55858063920852,52.55858063920852 0 0,0 -0.6407343481018238,0.6352580190590459 l -22.026126889857885 -22.60074658486543" fill="#ffd513" stroke="none" /><path d="M 114.39649973595853 115.28858382429668 l 21.069613420683293 22.375199307861177 a51.7339902024379,51.7339902024379 0 0,0 -0.6517749342238083,0.6032731486827803 l -20.68240871514552 -22.733590202676336" fill="#ffc512" stroke="none" /><path d="M 113.86319453409587 115.77377054828091 l 25.88603791360092 29.453559311239303 a60.21223170090011,60.21223170090011 0 0,0 -0.7822443989180499,0.675684080843383 l -25.376614034920014 -29.893587524547403" fill="#a4ff21" stroke="none" /><path d="M 113.31354834802062 116.24036423190432 l 18.685438832988797 22.79319716639056 a50.47330082375098,50.47330082375098 0 0,0 -0.6747781106616993,0.5435534809128616 l -18.291409951971843 -23.110598941096825" fill="#ffad10" stroke="none" /><path d="M 113.03279911837588 116.46651593811092 l 26.82272087715604 33.88963159912738 a64.21996627923714,64.21996627923714 0 0,0 -0.8703030361396056,0.6767529048830144 l -26.237007896381204 -34.34508555563119" fill="#64ff29" stroke="none" /><path d="M 112.45986205192187 116.90419585922612 l 19.569071214557408 26.54920345149392 a53.98194585086265,53.98194585086265 0 0,0 -0.750654918353147,0.5434162720310804 l -19.11043528583029 -26.881220494898077" fill="#ffef16" stroke="none" /><path d="M 111.8722381534696 117.32195027204791 l 24.253049150386307 35.38592352156873 a63.899580144394946,63.899580144394946 0 0,0 -0.9101238862015025,0.6123719681748854 l -23.642028976087804 -35.79704516380074" fill="#69ff28" stroke="none" /><path d="M 111.27062007382361 117.71928675628689 l 16.062034968908577 25.252186804221168 a50.927611093064606,50.927611093064606 0 0,0 -0.7416900146336187,0.4628694242876825 l -15.626180825485243 -25.5241920253504" fill="#ffb610" stroke="none" /><path d="M 110.96478420261333 117.91015095944535 l 30.598560818883463 49.98044952652669 a79.60304820622041,79.60304820622041 0 0,0 -1.171556889462954,0.7034862505589755 l -29.73607117286307 -50.49834977762159" fill="#45ffef" stroke="none" /><line stroke="#e1ed5e" stroke-width="0.3" x1="143.1302829299769" x2="145.66735839644613" y1="173.24464959558577" y2="177.55315839532614" /><path d="M 143.63769802327073 174.10635135553383 a86.0,86.0 0 0,1 -40.68552437913181,11.842963189579606" fill="none" id="id6" stroke="none" /><text fill="#e1ed5e" style="font-size:6.75px; font-family:Arial;" text-anchor="middle"><textPath startOffset="21.407464694133747" xlink:href="#id6">June</textPath></text><path d="M 109.71004243097381 118.62028667847754 l 11.813574778878282 22.6540873167209 a46.549329173380734,46.549329173380734 0 0,0 -0.7117010688126831,0.3633996368066399 l -11.422946488352016 -22.85354490520038" fill="#ff6008" stroke="none" /><path d="M 109.06512990194946 118.94263497670748 l 17.20974652637727 35.9617512398491 a60.86756736670728,60.86756736670728 0 0,0 -0.9463784621150634,0.44295290571974383 l -16.5898793503907 -36.25188037713938" fill="#99ff23" stroke="none" /><path d="M 108.73861861582097 119.09545874513695 l 26.13680022668897 57.11362543675181 a83.8100193967446,83.8100193967446 0 0,0 -1.3133692423751704,0.5874533567320713 l -25.15251758145817 -57.55388254439373" fill="#4dd5ff" stroke="none" /><path d="M 108.07796709384702 119.3841803445677 l 8.585465691322321 20.601992230131017 a43.31932581838554,43.31932581838554 0 0,0 -0.6888712191089337,0.28015792773954656 l -8.230540011022946 -20.746337414449854" fill="#ff1d03" stroke="none" /><path d="M 106.72888874123015 119.89276391827305 l 6.713353572516195 19.84683695238884 a41.95151672801573,41.95151672801573 0 0,0 -0.6841638381207672,0.22489824281084708 l -6.3716669967476935 -19.959156116601708" fill="#ff0000" stroke="none" /><path d="M 106.38641147887787 120.00534299687104 l 10.519645219352897 32.95263881987231 a55.59102977267387,55.59102977267387 0 0,0 -0.9115853252634601,0.2824114639757749 l -9.952419261217813 -33.128366871654734" fill="#f2ff19" stroke="none" /><path d="M 104.9986988182912 120.39639698878246 l 6.2789740050684255 25.620356645812276 a47.378555480066424,47.378555480066424 0 0,0 -0.7916005581050739,0.18681557629622728 l -5.838241293223473 -25.724368365754728" fill="#ff710a" stroke="none" /><path d="M 103.94208987418118 120.62667999033965 l 11.826269622543526 61.88003997101896 a84.0,84.0 0 0,0 -1.4186610657957712,0.2585273042745455 l -10.762273823196699 -62.07393544922487" fill="#4dd2ff" stroke="none" /><path d="M 102.875027216393 120.80226474461374 l 7.880582360250582 57.01996825106134 a78.56196971689499,78.56196971689499 0 0,0 -1.33750697760644,0.17316705607371424 l -6.900597560753367 -57.14684690333545" fill="#43ffdf" stroke="none" /><path d="M 100.72087961077811 120.9876233191556 l 1.137383741553208 33.11368664080323 a54.13321422260237,54.13321422260237 0 0,0 -0.9289947463039115,0.0239276092935597 l -0.5687756811785525 -33.12833196744683" fill="#fff216" stroke="none" /><line stroke="#e1ed5e" stroke-width="0.3" x1="101.45913802915013" x2="101.54496967792366" y1="184.9874750549273" y2="189.98673829345242" /><path d="M 101.47630435890484 185.9873277026323 a86.0,86.0 0 0,1 -42.54439059252881,-10.42667462771756" fill="none" id="id7" stroke="none" /><text fill="#e1ed5e" style="font-size:6.75px; font-family:Arial;" text-anchor="middle"><textPath startOffset="22.145653131862474" xlink:href="#id7">July</textPath></text><path d="M 99.27912038922189 120.98762331915562 l -1.125706874916703 32.7737274092607 a53.79305451257569,53.79305451257569 0 0,0 -0.9226129759059317,-0.03962097094471128 l 1.6881456114234736 -32.749573869890156" fill="#ffeb16" stroke="none" /><path d="M 98.19965949673042 120.92268563240118 l -2.842655888835389 33.035970370706494 a54.15804624576858,54.15804624576858 0 0,0 -0.9255879258962323,-0.08765413891251193 l 3.4093433781166365 -32.982304476288796" fill="#fff216" stroke="none" /><path d="M 97.48249496171623 120.84855314841334 l -4.852995031899196 40.18976062129797 a61.48170475136727,61.48170475136727 0 0,0 -1.0467177617417116,-0.13551857027710745 l 5.542190615531702 -40.100530454820465" fill="#8fff24" stroke="none" /><path d="M 96.76829788921471 120.74984581791261 l -5.308509899963627 34.084441625822315 a55.49535386544253,55.49535386544253 0 0,0 -0.94004504028424,-0.1546840536496776 l 5.892832443300931 -33.988291573676975" fill="#f4ff19" stroke="none" /><path d="M 95.70440661134978 120.55596938700252 l -5.256150285672502 25.15258186476517 a46.695904153955915,46.695904153955915 0 0,0 -0.7832405920463743,-0.17070364157270573 l 5.687153294338013 -25.058646765058747" fill="#ff6309" stroke="none" /><path d="M 94.30408787586889 120.21278271476187 l -7.138620564266325 25.33244600761059 a47.31905629556409,47.31905629556409 0 0,0 -0.7799532171552669,-0.22703301435391968 l 7.5724337938031985 -25.206169298954155" fill="#ff700a" stroke="none" /><line stroke="#e1ed5e" stroke-width="0.3" x1="58.13341422392154" x2="55.67067388415222" y1="173.97424548756322" y2="178.32567169271397" /><path d="M 57.64086615596768 174.84453072859336 a86.0,86.0 0 0,1 -31.369924170532247,-30.572349798747897" fill="none" id="id8" stroke="none" /><text fill="#e1ed5e" style="font-size:6.75px; font-family:Arial;" text-anchor="middle"><textPath startOffset="22.145653131862474" xlink:href="#id8">August</textPath></text><line stroke="#e1ed5e" stroke-width="0.3" x1="26.387840678322732" x2="22.057713659400534" y1="142.50000000000003" y2="145.00000000000006" /><path d="M 25.521815274538284 143.00000000000003 a86.0,86.0 0 0,1 -11.493303480769212,-40.785679425670985" fill="none" id="id9" stroke="none" /><text fill="#e1ed5e" style="font-size:6.75px; font-family:Arial;" text-anchor="middle"><textPath startOffset="21.40746469413373" xlink:href="#id9">September</textPath></text><line stroke="#e1ed5e" stroke-width="0.3" x1="15.003131293944662" x2="10.003315487706104" y1="100.72959589197737" y2="100.7725132973878" /><path d="M 14.003168132696942 100.73817937305945 a86.0,86.0 0 0,1 10.791469493833604,-42.45332614584628" fill="none" id="id10" stroke="none" /><text fill="#e1ed5e" style="font-size:6.75px; font-family:Arial;" text-anchor="middle"><textPath startOffset="22.145653131862435" xlink:href="#id10">October</textPath></text><line stroke="#e1ed5e" stroke-width="0.3" x1="26.387840678322718" x2="22.05771365940052" y1="57.49999999999999" y2="54.99999999999999" /><path d="M 25.521815274538284 56.99999999999999 a86.0,86.0 0 0,1 29.574782752854787,-30.34633250058573" fill="none" id="id11" stroke="none" /><text fill="#e1ed5e" style="font-size:6.75px; font-family:Arial;" text-anchor="middle"><textPath startOffset="21.40746469413373" xlink:href="#id11">November</textPath></text><line stroke="#e1ed5e" stroke-width="0.3" x1="56.869717070023135" x2="54.33264160355391" y1="26.7553504044142" y2="22.446841604673864" /><path d="M 56.362301976729285 25.89364864446614 a86.0,86.0 0 0,1 42.16139366436587,-11.88097634709845" fill="none" id="id12" stroke="none" /><text fill="#e1ed5e" style="font-size:6.75px; font-family:Arial;" text-anchor="middle"><textPath startOffset="22.145653131862474" xlink:href="#id12">December</textPath></text></svg>